<?xml version="1.0" encoding="UTF-8"?>
<svg id="Layer_1" xmlns="http://www.w3.org/2000/svg" version="1.1" viewBox="0 0 2835 2835">
  <!-- Generator: Adobe Illustrator 30.1.0, SVG Export Plug-In . SVG Version: 2.1.1 Build 65)  -->
  <defs>
    <style>
      .st0 {
        fill: #323c3e;
      }

      .st1 {
        fill: #04bcca;
      }

      .st2 {
        fill: #f0efee;
      }
    </style>
  </defs>
  <path class="st2" d="M0,2834V84.59C0,37.87,37.87,0,84.59,0h2665.83c46.72,0,84.59,37.87,84.59,84.59v2665.83c0,46.72-37.87,84.59-84.59,84.59H0v-1ZM160.87,669.3v172.85s.93,128.46.93,128.46c.03,4.85-.22,9.72-1.05,14.5-.43,2.46-.47,5.44-.46,8.78l.6,283.67.24,1277.13c0,19.72,10.06,37.16,22.37,51.23,25.92,29.63,62.73,50.31,102.48,54.19,78.68,7.68,172.17-1.87,256.83-1.16,25,.21,48.68-10.63,65.16-29.44.27-.3.53-.61.8-.91,15.92-17.88,38.81-27.98,62.75-28.03l1493.79-2.77c21.03-.04,41.43,7.64,56.91,21.86,3.19,2.93,6.19,6.06,8.99,9.36,16.16,19.1,40.14,29.81,65.16,29.92,86.3.38,168.84,7.39,255.79,1.48,2.73-.19,5.45-.51,8.15-.95,30.19-4.94,58.21-14.71,79.57-38.18,19.15-21.04,36.56-51.67,36.56-82.64l.17-2214.44c0-5.47-.51-10.93-1.58-16.3-7.78-39.33-27.92-74.76-59.47-100.6-17.98-14.73-42-33.78-67.53-33.84l-538.84-1.17-905.14-.68-186.75.13-416.49-.46-200.43-.14c-12.57,0-25.79,4.8-37.25,10.05-31.97,14.65-59.66,37.77-77.74,68.12-7.42,12.45-13.43,25.69-18.76,39.46-3.73,9.65-5.6,19.92-5.61,30.26l-.13,350.27Z"/>
  <path class="st2" d="M1411.35,871.98l.1,35.8c.08,29.97,1.04,62.66-26.28,77.88-45.87,25.55-79.78,34.18-119.14,66.59-87.1,71.71-133.75,182.49-122.99,295.41,6.23,65.37,31.81,126.23,75.22,174.99,80.13,89.99,237.91,113.95,350.39,133.69l151.17,26.52c47.88,8.4,131.62,32.47,169.81,61.95,34.11,26.33,44.5,68.61,26.48,108.26-17.92,39.44-52.8,68.52-94.63,82.24-159.22,52.22-424.1,16.18-558.04-85.91-13-9.91-23.45-21.68-35.75-32.33-4.93-3.56-9.84-6.52-16.54-8.49l-148.13,151.79c73.33,74.96,161.52,125.72,259.17,153.87,112.89,32.54,224.55,35.6,341.27,34.31,17.03-.19,14.31,43.23-16.88,62.58-17.08,10.6-38.29,20.83-60.29,20.89l-592.18,1.74c-50.32,13.28-71.26,71.24-80.33,116.94h1212.87c-14.44-53.82-36.6-116.67-101.22-119.78-67.76-3.26-120.37,3.76-190.23,2.89-17.94-.22-39.43-8.55-44.54-27.42-6.88-25.42,10.98-50.11,34.35-59.49,17.76-7.13,34.57-9.28,53.45-12.96,63.89-12.47,122.76-42.9,170.98-86.13,85.98-77.07,124.48-190.38,107.83-304.13-18.69-127.69-108.13-199.04-223.51-240.83-48.65-17.62-96.88-31.33-148.21-39.69l-166.57-27.14c-58.8-9.58-154.3-20.71-201.51-52.17-52.98-35.31-62.15-105.44-20.93-153.38,29.12-33.87,69.38-51.64,114.75-54.02,94.59-4.95,188.07-3.8,282.71,2.11,85.88,8.49,178.64,40.68,235.25,109.97l138.15-152.4c3.04-3.36,6.74-13.97,2.69-17.15-24.92-19.49-48.39-38.46-75.4-54.81-93.99-56.89-199.44-86.49-309.18-91.19-50.36-2.16-97.88-.81-148.15.74l-140.45,4.34-7.58-106.13c9.01-.41,20.23-2.02,27.65-9.05,5.69-5.39,15.37-17.11,15.5-25.2l1.3-80.3c52.44-1.3,106.29,9.44,135.48-40.22l.67-99.88,862.35.06.1,1736.05c-10.22,19.02-31.27,45.08-55.94,45.08l-2113.3.05c-21.73,0-54.61-20.88-54.69-43.92l-3.17-990.01c-35.94-16.36-70.76-33.65-102.46-55.53-28.24-19.5-25.99-31.55-41.95-31.51l-.6-283.67c-.01-5.2.09-9.51,1.59-12.39l1.49,14.62c14.41,141.02,98.46,240.37,232.85,281.4,65.29,19.93,132.87,27.34,201.01,21.17,141.8-12.82,263.39-95.38,304.88-234.76,25.68-86.26,15.5-189.04,15.46-278.23l-.06-168.29h312.98s.21,95.44.21,95.44c5.72,12.88,17.65,23.85,28.06,33.55,13.48,4.05,26.91,10.39,40.85,10.52l67.33.63.22,84.45c.05,18.33,30.64,29.36,44.2,29.98Z"/>
  <path class="st0" d="M160.88,1277.55c15.96-.05,13.7,12.01,41.95,31.51,31.7,21.88,66.53,39.17,102.46,55.53l3.17,990.01c.07,23.04,32.96,43.92,54.69,43.92l2113.3-.05c24.67,0,45.72-26.06,55.94-45.08l-.1-1736.05-862.35-.06-.67,99.88c-29.19,49.66-83.04,38.91-135.48,40.22l-1.3,80.3c-.13,8.1-9.81,19.81-15.5,25.2-7.42,7.03-18.64,8.64-27.65,9.05-25.98,1.19-51.98,1.24-77.97.05-13.55-.62-44.15-11.65-44.2-29.98l-.22-84.45-67.33-.63c-13.94-.13-27.37-6.48-40.85-10.52-10.41-9.71-22.34-20.67-28.06-33.55l-.21-95.44h-312.98s.2-129.44.2-129.44l311.41-.12c-1.48-23.52,8.47-50.42,28.78-61.77l127.67-.96-.16-106.58-467.65-.23-.47-146.58,186.75-.13,905.14.68,538.84,1.17c25.53.06,49.55,19.11,67.53,33.84,33.98,27.83,54.73,66.78,61.05,109.76l-.17,2221.59c0,30.98-17.41,61.6-36.56,82.64-22.41,24.63-52.16,34.17-84.05,38.88-104.02,7.49-201.58-3.83-306.62-.66-11.23-29.1-33.78-51.08-63.49-61.74l-1543.53,2.87c-23.92,14.6-42.3,35.17-55.52,59.8-95.06-6.1-208.12,8.72-300.69-.32-39.75-3.88-76.56-24.55-102.48-54.19-12.31-14.08-22.37-31.51-22.37-51.23l-.24-1277.13ZM1671.62,487.91h860.76c-1.45-42.77,2.85-85.15-1.79-126.76-2.36-19.71-24.64-33.23-40.68-42.61h-974.92s-.36,106.7-.36,106.7l120.99.2c4.44,0,10.57,3.58,14.28,6.07,15.82,14.74,22.24,34.78,21.73,56.4Z"/>
  <path class="st1" d="M917.29,171.73l.47,146.58-.05,169.65-.2,129.44.06,168.29c.03,89.2,10.21,191.98-15.46,278.23-41.49,139.38-163.09,221.93-304.88,234.76-68.14,6.16-135.72-1.24-201.01-21.17-134.39-41.03-218.44-140.38-232.85-281.4l-1.49-14.62-1-139.35,144.42.15-.58,61.35c-.76,80.96,11.92,163.71,82.51,213.05,29.82,20.84,62.53,37.7,99.12,43.69,30.51,4.99,62.09,5.68,92.91-.16,64.22-12.16,120.99-52.06,156.36-106.57,15.11-23.28,26.32-49.82,26.33-78.33l.26-656.55-411.05-.13c-21.1,9.56-36.23,24.83-45.93,45.78l-.13,304.55-144.23.33.14-365.22c6.72-19.3,14.23-37.77,24.36-54.78,18.08-30.34,45.78-53.46,77.74-68.12,11.46-5.25,24.68-10.06,37.25-10.05l200.43.14,416.49.46Z"/>
  <path class="st2" d="M160.87,842.14v-172.85s144.22-.33,144.22-.33l.13-304.55c9.7-20.95,24.83-36.22,45.93-45.78l411.05.13-.26,656.55c-.01,28.52-11.22,55.05-26.33,78.33-35.37,54.51-92.15,94.41-156.36,106.57-30.82,5.83-62.4,5.14-92.91.16-36.59-5.98-69.3-22.84-99.12-43.69-70.59-49.34-83.27-132.09-82.51-213.05l.58-61.35-144.42-.15Z"/>
  <path class="st1" d="M1489.32,871.93l7.58,106.13,140.45-4.34c50.27-1.55,97.79-2.9,148.15-.74,109.74,4.7,215.19,34.3,309.18,91.19,27.01,16.35,50.47,35.32,75.4,54.81,4.06,3.17.36,13.79-2.69,17.15l-138.15,152.4c-56.61-69.29-149.38-101.48-235.25-109.97-94.64-5.91-188.12-7.06-282.71-2.11-45.37,2.38-85.63,20.15-114.75,54.02-41.22,47.94-32.06,118.08,20.93,153.38,47.21,31.46,142.7,42.58,201.51,52.17l166.57,27.14c51.33,8.36,99.56,22.07,148.21,39.69,115.37,41.79,204.82,113.13,223.51,240.83,16.64,113.75-21.86,227.06-107.83,304.13-48.22,43.23-107.09,73.66-170.98,86.13-18.88,3.69-35.69,5.84-53.45,12.96-23.37,9.38-41.23,34.07-34.35,59.49,5.11,18.87,26.6,27.2,44.54,27.42,69.86.87,122.47-6.15,190.23-2.89,64.62,3.11,86.78,65.96,101.22,119.78H913.78c9.07-45.7,30.01-103.66,80.33-116.94l592.18-1.74c21.99-.06,43.21-10.3,60.29-20.89,31.2-19.36,33.91-62.77,16.88-62.58-116.72,1.29-228.37-1.77-341.27-34.31-97.65-28.15-185.84-78.91-259.17-153.87l148.13-151.79c6.7,1.96,11.61,4.93,16.54,8.49,12.31,10.65,22.75,22.42,35.75,32.33,133.94,102.09,398.82,138.13,558.04,85.91,41.83-13.72,76.71-42.8,94.63-82.24,18.02-39.66,7.63-81.93-26.48-108.26-38.19-29.48-121.93-53.54-169.81-61.95l-151.17-26.52c-112.48-19.74-270.26-43.69-350.39-133.69-43.41-48.76-68.99-109.62-75.22-174.99-10.77-112.92,35.89-223.7,122.99-295.41,39.37-32.41,73.28-41.04,119.14-66.59,27.33-15.22,26.37-47.92,26.28-77.88l-.1-35.8c25.99,1.19,51.99,1.14,77.97-.05Z"/>
  <path class="st2" d="M1671.62,487.91c.52-21.62-5.91-41.65-21.73-56.4-3.71-2.49-9.84-6.06-14.28-6.07l-120.99-.2.36-106.72h974.92c16.04,9.4,38.32,22.91,40.68,42.63,4.64,41.61.34,83.99,1.79,126.75h-860.76Z"/>
  <path class="st2" d="M917.71,487.96l.05-169.65,467.65.23.16,106.58-127.67.96c-20.31,11.34-30.26,38.25-28.78,61.77l-311.41.12Z"/>
</svg>