<?xml version="1.0" encoding="UTF-8"?>
<svg id="Layer_1" data-name="Layer 1" xmlns="http://www.w3.org/2000/svg" viewBox="0 0 7557.65 2835">
  <defs>
    <style>
      .cls-1 {
        fill: #323c3e;
      }

      .cls-2 {
        fill: #04bcca;
      }

      .cls-3 {
        fill: #f0efee;
      }
    </style>
  </defs>
  <rect class="cls-3" x="2447.42" width="5110.23" height="2835" rx="100.94" ry="100.94"/>
  <g>
    <path class="cls-3" d="M0,2834V100.3C0,44.91,44.91,0,100.3,0h2650.11c46.72,0,84.59,37.87,84.59,84.59v2665.83c0,46.72-37.87,84.59-84.59,84.59H0v-1ZM160.87,669.3v172.85s.93,128.46.93,128.46c.03,4.85-.22,9.72-1.05,14.5-.43,2.46-.47,5.44-.46,8.78l.6,283.67.24,1277.13c0,19.72,10.06,37.16,22.37,51.23,25.92,29.63,62.73,50.31,102.48,54.19,78.68,7.68,172.17-1.87,256.83-1.16,25,.21,48.68-10.63,65.16-29.44.27-.3.53-.61.8-.91,15.92-17.88,38.81-27.98,62.75-28.03l1493.79-2.77c21.03-.04,41.43,7.64,56.91,21.86,3.19,2.93,6.19,6.06,8.99,9.36,16.16,19.1,40.14,29.81,65.16,29.92,86.3.38,168.84,7.39,255.79,1.48,2.73-.19,5.45-.51,8.15-.95,30.19-4.94,58.21-14.71,79.57-38.18,19.15-21.04,36.56-51.67,36.56-82.64l.17-2214.44c0-5.47-.51-10.93-1.58-16.3-7.78-39.33-27.92-74.76-59.47-100.6-17.98-14.73-42-33.78-67.53-33.84l-538.84-1.17-905.14-.68-186.75.13-416.49-.46-200.43-.14c-12.57,0-25.79,4.8-37.25,10.05-31.97,14.65-59.66,37.77-77.74,68.12-7.42,12.45-13.43,25.69-18.76,39.46-3.73,9.65-5.6,19.92-5.61,30.26l-.13,350.27Z"/>
    <path class="cls-3" d="M1411.35,871.98l.1,35.8c.08,29.97,1.04,62.66-26.28,77.88-45.87,25.55-79.78,34.18-119.14,66.59-87.1,71.71-133.75,182.49-122.99,295.41,6.23,65.37,31.81,126.23,75.22,174.99,80.13,89.99,237.91,113.95,350.39,133.69l151.17,26.52c47.88,8.4,131.62,32.47,169.81,61.95,34.11,26.33,44.5,68.61,26.48,108.26-17.92,39.44-52.8,68.52-94.63,82.24-159.22,52.22-424.1,16.18-558.04-85.91-13-9.91-23.45-21.68-35.75-32.33-4.93-3.56-9.84-6.52-16.54-8.49l-148.13,151.79c73.33,74.96,161.52,125.72,259.17,153.87,112.89,32.54,224.55,35.6,341.27,34.31,17.03-.19,14.31,43.23-16.88,62.58-17.08,10.6-38.29,20.83-60.29,20.89l-592.18,1.74c-50.32,13.28-71.26,71.24-80.33,116.94h1212.87c-14.44-53.82-36.6-116.67-101.22-119.78-67.76-3.26-120.37,3.76-190.23,2.89-17.94-.22-39.43-8.55-44.54-27.42-6.88-25.42,10.98-50.11,34.35-59.49,17.76-7.13,34.57-9.28,53.45-12.96,63.89-12.47,122.76-42.9,170.98-86.13,85.98-77.07,124.48-190.38,107.83-304.13-18.69-127.69-108.13-199.04-223.51-240.83-48.65-17.62-96.88-31.33-148.21-39.69l-166.57-27.14c-58.8-9.58-154.3-20.71-201.51-52.17-52.98-35.31-62.15-105.44-20.93-153.38,29.12-33.87,69.38-51.64,114.75-54.02,94.59-4.95,188.07-3.8,282.71,2.11,85.88,8.49,178.64,40.68,235.25,109.97l138.15-152.4c3.04-3.36,6.74-13.97,2.69-17.15-24.92-19.49-48.39-38.46-75.4-54.81-93.99-56.89-199.44-86.49-309.18-91.19-50.36-2.16-97.88-.81-148.15.74l-140.45,4.34-7.58-106.13c9.01-.41,20.23-2.02,27.65-9.05,5.69-5.39,15.37-17.11,15.5-25.2l1.3-80.3c52.44-1.3,106.29,9.44,135.48-40.22l.67-99.88,862.35.06.1,1736.05c-10.22,19.02-31.27,45.08-55.94,45.08l-2113.3.05c-21.73,0-54.61-20.88-54.69-43.92l-3.17-990.01c-35.94-16.36-70.76-33.65-102.46-55.53-28.24-19.5-25.99-31.55-41.95-31.51l-.6-283.67c-.01-5.2.09-9.51,1.59-12.39l1.49,14.62c14.41,141.02,98.46,240.37,232.85,281.4,65.29,19.93,132.87,27.34,201.01,21.17,141.8-12.82,263.39-95.38,304.88-234.76,25.68-86.26,15.5-189.04,15.46-278.23l-.06-168.29h312.98s.21,95.44.21,95.44c5.72,12.88,17.65,23.85,28.06,33.55,13.48,4.05,26.91,10.39,40.85,10.52l67.33.63.22,84.45c.05,18.33,30.64,29.36,44.2,29.98Z"/>
    <path class="cls-1" d="M160.88,1277.55c15.96-.05,13.7,12.01,41.95,31.51,31.7,21.88,66.53,39.17,102.46,55.53l3.17,990.01c.07,23.04,32.96,43.92,54.69,43.92l2113.3-.05c24.67,0,45.72-26.06,55.94-45.08l-.1-1736.05-862.35-.06-.67,99.88c-29.19,49.66-83.04,38.91-135.48,40.22l-1.3,80.3c-.13,8.1-9.81,19.81-15.5,25.2-7.42,7.03-18.64,8.64-27.65,9.05-25.98,1.19-51.98,1.24-77.97.05-13.55-.62-44.15-11.65-44.2-29.98l-.22-84.45-67.33-.63c-13.94-.13-27.37-6.48-40.85-10.52-10.41-9.71-22.34-20.67-28.06-33.55l-.21-95.44h-312.98s.2-129.44.2-129.44l311.41-.12c-1.48-23.52,8.47-50.42,28.78-61.77l127.67-.96-.16-106.58-467.65-.23-.47-146.58,186.75-.13,905.14.68,538.84,1.17c25.53.06,49.55,19.11,67.53,33.84,33.98,27.83,54.73,66.78,61.05,109.76l-.17,2221.59c0,30.98-17.41,61.6-36.56,82.64-22.41,24.63-52.16,34.17-84.05,38.88-104.02,7.49-201.58-3.83-306.62-.66-11.23-29.1-33.78-51.08-63.49-61.74l-1543.53,2.87c-23.92,14.6-42.3,35.17-55.52,59.8-95.06-6.1-208.12,8.72-300.69-.32-39.75-3.88-76.56-24.55-102.48-54.19-12.31-14.08-22.37-31.51-22.37-51.23l-.24-1277.13ZM1671.62,487.91h860.76c-1.45-42.77,2.85-85.15-1.79-126.76-2.36-19.71-24.64-33.23-40.68-42.61h-974.92s-.36,106.7-.36,106.7l120.99.2c4.44,0,10.57,3.58,14.28,6.07,15.82,14.74,22.24,34.78,21.73,56.4Z"/>
    <path class="cls-2" d="M917.29,171.73l.47,146.58-.05,169.65-.2,129.44.06,168.29c.03,89.2,10.21,191.98-15.46,278.23-41.49,139.38-163.09,221.93-304.88,234.76-68.14,6.16-135.72-1.24-201.01-21.17-134.39-41.03-218.44-140.38-232.85-281.4l-1.49-14.62-1-139.35,144.42.15-.58,61.35c-.76,80.96,11.92,163.71,82.51,213.05,29.82,20.84,62.53,37.7,99.12,43.69,30.51,4.99,62.09,5.68,92.91-.16,64.22-12.16,120.99-52.06,156.36-106.57,15.11-23.28,26.32-49.82,26.33-78.33l.26-656.55-411.05-.13c-21.1,9.56-36.23,24.83-45.93,45.78l-.13,304.55-144.23.33.14-365.22c6.72-19.3,14.23-37.77,24.36-54.78,18.08-30.34,45.78-53.46,77.74-68.12,11.46-5.25,24.68-10.06,37.25-10.05l200.43.14,416.49.46Z"/>
    <path class="cls-3" d="M160.87,842.14v-172.85s144.22-.33,144.22-.33l.13-304.55c9.7-20.95,24.83-36.22,45.93-45.78l411.05.13-.26,656.55c-.01,28.52-11.22,55.05-26.33,78.33-35.37,54.51-92.15,94.41-156.36,106.57-30.82,5.83-62.4,5.14-92.91.16-36.59-5.98-69.3-22.84-99.12-43.69-70.59-49.34-83.27-132.09-82.51-213.05l.58-61.35-144.42-.15Z"/>
    <path class="cls-2" d="M1489.32,871.93l7.58,106.13,140.45-4.34c50.27-1.55,97.79-2.9,148.15-.74,109.74,4.7,215.19,34.3,309.18,91.19,27.01,16.35,50.47,35.32,75.4,54.81,4.06,3.17.36,13.79-2.69,17.15l-138.15,152.4c-56.61-69.29-149.38-101.48-235.25-109.97-94.64-5.91-188.12-7.06-282.71-2.11-45.37,2.38-85.63,20.15-114.75,54.02-41.22,47.94-32.06,118.08,20.93,153.38,47.21,31.46,142.7,42.58,201.51,52.17l166.57,27.14c51.33,8.36,99.56,22.07,148.21,39.69,115.37,41.79,204.82,113.13,223.51,240.83,16.64,113.75-21.86,227.06-107.83,304.13-48.22,43.23-107.09,73.66-170.98,86.13-18.88,3.69-35.69,5.84-53.45,12.96-23.37,9.38-41.23,34.07-34.35,59.49,5.11,18.87,26.6,27.2,44.54,27.42,69.86.87,122.47-6.15,190.23-2.89,64.62,3.11,86.78,65.96,101.22,119.78H913.78c9.07-45.7,30.01-103.66,80.33-116.94l592.18-1.74c21.99-.06,43.21-10.3,60.29-20.89,31.2-19.36,33.91-62.77,16.88-62.58-116.72,1.29-228.37-1.77-341.27-34.31-97.65-28.15-185.84-78.91-259.17-153.87l148.13-151.79c6.7,1.96,11.61,4.93,16.54,8.49,12.31,10.65,22.75,22.42,35.75,32.33,133.94,102.09,398.82,138.13,558.04,85.91,41.83-13.72,76.71-42.8,94.63-82.24,18.02-39.66,7.63-81.93-26.48-108.26-38.19-29.48-121.93-53.54-169.81-61.95l-151.17-26.52c-112.48-19.74-270.26-43.69-350.39-133.69-43.41-48.76-68.99-109.62-75.22-174.99-10.77-112.92,35.89-223.7,122.99-295.41,39.37-32.41,73.28-41.04,119.14-66.59,27.33-15.22,26.37-47.92,26.28-77.88l-.1-35.8c25.99,1.19,51.99,1.14,77.97-.05Z"/>
    <path class="cls-3" d="M1671.62,487.91c.52-21.62-5.91-41.65-21.73-56.4-3.71-2.49-9.84-6.06-14.28-6.07l-120.99-.2.36-106.72h974.92c16.04,9.4,38.32,22.91,40.68,42.63,4.64,41.61.34,83.99,1.79,126.75h-860.76Z"/>
    <path class="cls-3" d="M917.71,487.96l.05-169.65,467.65.23.16,106.58-127.67.96c-20.31,11.34-30.26,38.25-28.78,61.77l-311.41.12Z"/>
  </g>
  <g>
    <g>
      <path class="cls-1" d="M3593.46,1102.39c0,61.63-1.76,114.46-38.74,168.17-34.34,50.19-88.93,74.84-148.8,74.84-48.43,0-97.73-28.17-130.31-62.51l82.76-95.09c6.16,19.37,29.05,43.14,50.19,43.14,63.39,0,55.47-107.42,55.47-150.56v-416.46h129.43v438.47Z"/>
      <path class="cls-1" d="M3780.99,1131.44c0,54.59,21.13,116.22,85.4,116.22,40.5,0,66.04-24.65,82.76-58.99l113.58,18.49c-29.94,86.29-105.65,134.71-196.34,134.71-133.83,0-215.71-95.09-215.71-226.28s69.56-234.2,209.55-234.2,205.15,104.77,205.15,235.08v14.97h-284.39ZM3949.16,1054.84c-6.16-44.02-34.34-87.17-81.88-87.17s-76.6,42.26-82.76,87.17h164.65Z"/>
      <path class="cls-1" d="M4245.87,1327.79h-123.27v-746.63h123.27v746.63Z"/>
      <path class="cls-1" d="M4739.81,1301.37c0,140.87-47.54,257.1-209.55,257.1-105.66,0-212.19-64.27-218.36-179.61h130.31c6.16,45.78,38.74,75.72,85.4,75.72,87.17,0,88.93-76.6,88.93-141.75v-28.17h-1.76c-26.41,35.22-72.2,57.23-117.98,57.23-126.79,0-194.58-110.94-194.58-227.16s72.2-233.32,200.75-233.32c43.14,0,87.17,22.01,111.82,55.47h1.76v-41.38h123.26v405.89ZM4631.51,1112.07c0-58.11-38.74-121.5-102.13-121.5s-102.13,63.39-102.13,121.5,38.74,120.62,102.13,120.62,102.13-62.51,102.13-120.62Z"/>
      <path class="cls-1" d="M4927.35,1131.44c0,54.59,21.13,116.22,85.4,116.22,40.5,0,66.04-24.65,82.76-58.99l113.58,18.49c-29.94,86.29-105.66,134.71-196.34,134.71-133.83,0-215.71-95.09-215.71-226.28s69.56-234.2,209.55-234.2,205.15,104.77,205.15,235.08v14.97h-284.39ZM5095.51,1054.84c-6.16-44.02-34.34-87.17-81.88-87.17s-76.6,42.26-82.76,87.17h164.65Z"/>
      <path class="cls-1" d="M5392.22,940.38h1.76c24.65-37.86,61.63-58.99,107.42-58.99,17.61,0,35.22,4.4,51.07,10.57l-14.97,114.46c-14.97-10.57-32.58-15.85-51.07-15.85-85.4,0-94.21,75.72-94.21,142.64v194.58h-123.26v-432.31h123.26v44.9Z"/>
      <path class="cls-1" d="M5908.17,810.07c-24.65-33.46-56.35-54.59-99.49-54.59s-81,31.7-81,74.84c0,111.82,263.26,65.15,263.26,287.91,0,132.95-82.76,227.16-218.36,227.16-91.57,0-158.48-52.83-204.27-129.43l83.64-81.88c17.61,51.07,64.27,96.85,119.74,96.85s85.4-44.9,85.4-95.97c0-68.68-63.39-88.05-115.34-108.3-85.4-35.22-147.92-78.36-147.92-181.38,0-110.06,81.88-198.98,193.7-198.98,58.99,0,140.88,29.06,181.38,73.96l-60.75,89.81Z"/>
      <path class="cls-1" d="M6063.11,837.37c11.45-114.46,84.52-191.06,203.39-191.06s191.06,73.08,191.06,187.54c0,51.07-18.49,108.3-63.39,138.23,60.75,26.41,85.41,101.25,85.41,162.01,0,130.31-94.21,211.31-221,211.31s-213.07-90.69-220.12-209.55h130.31c2.64,52.83,37.86,96.85,95.09,96.85s88.93-54.59,88.93-106.54-35.22-110.06-93.33-105.66l-23.77,1.76v-92.45h14.09c55.47,0,84.52-36.1,84.52-91.57,0-44.02-27.29-84.52-75.72-84.52-45.79,0-70.44,43.14-72.2,83.64h-123.26Z"/>
      <path class="cls-1" d="M6567.61,663.92h184.9c191.94,0,320.49,143.52,320.49,332.81s-132.07,331.05-321.37,331.05h-184.02v-663.87ZM6697.04,1215.09h21.13c159.36,0,221-88.05,221-219.24,0-144.4-73.96-219.23-221-219.23h-21.13v438.47Z"/>
    </g>
    <g>
      <path class="cls-2" d="M3428.69,2094.96c0,7.92,5.07,18.68,17.73,18.68,19.31,0,20.58-19.63,20.58-33.88,0-26.59-9.18-34.19-35.78-33.24v-41.16c25.64,0,36.09-5.07,36.09-31.34,0-10.76-2.22-24.38-16.15-24.38s-15.83,14.25-15.83,24.7v4.75h-40.84c-1.9-38.31,11.71-70.6,55.72-70.6,38.63,0,60.47,24.7,60.47,62.37,0,22.8-6.33,47.17-29.44,56.36v.63c26.59,6.65,36.73,31.03,36.73,56.67,0,43.69-26.91,70.29-70.6,70.29-40.21,0-64.59-26.59-62.69-66.49h44.33l-.32,6.65Z"/>
      <path class="cls-2" d="M3562.3,2151v-238.72h35.78c8.23,0,107.01-12.03,107.01,121.26,0,68.07-26.28,117.46-100.68,117.46h-42.11ZM3657.91,2033.23c0-30.39-9.5-78.52-48.44-78.52v153.87c37.99,1.9,48.44-45.59,48.44-75.35Z"/>
      <path class="cls-2" d="M3841.23,2151v-238.72h49.07c10.13,0,81.05-6.33,81.05,70.6,0,44.64-28.81,70.29-72.5,70.29l-10.45-.63v98.46h-47.17ZM3888.41,2014.23c22.8.95,35.78-7.6,35.78-31.98,0-17.1-6.65-31.03-26.91-31.03h-8.87v63Z"/>
      <path class="cls-2" d="M4012.2,2151v-238.72h47.49c30.08,0,83.9,3.17,83.9,68.39,0,26.28-10.45,48.76-33.88,61.74l41.48,108.6h-49.71l-41.48-110.18h-.63v110.18h-47.17ZM4059.38,2014.86l8.23.32c21.53,0,30.08-14.56,30.08-34.19,0-17.1-8.23-31.03-31.98-29.76h-6.33v63.64Z"/>
      <path class="cls-2" d="M4243.96,1912.28v238.72h-47.17v-238.72h47.17Z"/>
      <path class="cls-2" d="M4339.57,1912.28l58.89,144.05.63-.63c-2.85-11.4-3.8-23.75-3.8-36.09v-107.33h47.17v238.72h-44.64l-58.25-144.05-.63.63,2.22,24.06.32,9.82v109.54h-47.17v-238.72h45.27Z"/>
      <path class="cls-2" d="M4602.04,1912.28v44.32h-37.36v194.4h-47.17v-194.4h-37.04v-44.32h121.58Z"/>
      <path class="cls-2" d="M4738.49,1966.11c-9.5-8.23-21.21-15.2-34.19-15.2-14.56,0-23.75,8.86-23.75,23.43,0,39.26,71.87,41.47,71.87,106.06,0,42.42-24.38,74.4-68.7,74.4-13.3,0-29.76-4.12-40.53-12.03v-44.96c11.08,7.6,21.85,12.66,35.78,12.66,15.2,0,27.23-10.13,27.23-25.96,0-18.36-14.56-25.33-27.86-34.83-27.23-18.36-44.01-36.09-44.01-70.92,0-37.68,21.85-70.29,62.37-70.29,15.2,0,28.81,4.12,41.79,11.71v45.91Z"/>
      <path class="cls-2" d="M4891.41,1912.28v44.32h-47.81v51.92h42.11v44.32h-42.11v53.82h48.44v44.32h-95.61v-238.72h94.98Z"/>
      <path class="cls-2" d="M4937.32,2151v-238.72h47.49c30.08,0,83.9,3.17,83.9,68.39,0,26.28-10.45,48.76-33.88,61.74l41.48,108.6h-49.71l-41.48-110.18h-.63v110.18h-47.17ZM4984.5,2014.86l8.23.32c21.53,0,30.08-14.56,30.08-34.19,0-17.1-8.23-31.03-31.98-29.76h-6.33v63.64Z"/>
      <path class="cls-2" d="M5146.6,1912.28l28.49,114.61c4.12,13.61,5.7,27.23,8.55,40.84h.63c2.53-13.93,3.48-27.54,7.28-41.48l28.81-113.98h49.39l-66.17,238.72h-38.63l-69.02-238.72h50.66Z"/>
      <path class="cls-2" d="M5353.03,1912.28v238.72h-47.17v-238.72h47.17Z"/>
      <path class="cls-2" d="M5522.41,1957.24c-6.02-1.58-11.71-2.53-17.73-2.53-41.48,0-59.52,37.68-59.52,74.4s18.05,79.15,59.21,79.15c6.01,0,12.03-1.58,18.05-3.48v44.64c-6.96,2.85-14.25,4.12-21.85,4.12-68.07,0-105.75-61.42-105.75-124.11,0-59.21,39.26-119.99,103.53-119.99,8.23,0,16.15,1.58,24.06,4.43v43.38Z"/>
      <path class="cls-2" d="M5658.24,1912.28v44.32h-47.81v51.92h42.11v44.32h-42.11v53.82h48.44v44.32h-95.61v-238.72h94.98Z"/>
      <path class="cls-2" d="M5957.75,2031.64c0,89.6-41.79,123.16-83.9,123.16s-83.9-33.56-83.9-123.16,41.79-123.16,83.9-123.16,83.9,33.56,83.9,123.16ZM5873.85,2111.11c31.34,0,33.56-60.47,33.56-79.47,0-21.21-2.22-79.47-33.56-79.47s-33.56,58.26-33.56,79.47c0,19,2.22,79.47,33.56,79.47Z"/>
      <path class="cls-2" d="M5999.54,2151v-238.72h49.07c10.13,0,81.05-6.33,81.05,70.6,0,44.64-28.81,70.29-72.5,70.29l-10.45-.63v98.46h-47.17ZM6046.71,2014.23c22.8.95,35.78-7.6,35.78-31.98,0-17.1-6.65-31.03-26.91-31.03h-8.87v63Z"/>
      <path class="cls-2" d="M6338.31,1912.28l23.11,140.89h.63l19-140.89h63.32l25.01,238.72h-48.44l-11.4-171.92h-.63l-7.6,58.89-20.26,113.03h-36.41l-23.11-114.29-7.92-53.19v-4.43h-.63l-6.97,171.92h-50.66l20.9-238.72h62.05Z"/>
      <path class="cls-2" d="M6601.09,1912.28l57.31,238.72h-50.34l-8.87-40.21h-47.81l-8.55,40.21h-46.86l55.41-238.72h49.71ZM6580.19,2009.8l-5.38-36.09h-.63l-5.07,36.09-10.13,63.64h33.24l-12.03-63.64Z"/>
      <path class="cls-2" d="M6785.04,1912.28l57.31,238.72h-50.34l-8.87-40.21h-47.81l-8.55,40.21h-46.86l55.41-238.72h49.71ZM6764.14,2009.8l-5.38-36.09h-.63l-5.07,36.09-10.13,63.64h33.24l-12.03-63.64Z"/>
      <path class="cls-2" d="M6970.26,1912.28v44.32h-37.36v194.4h-47.17v-194.4h-37.04v-44.32h121.58Z"/>
    </g>
  </g>
</svg>