<?xml version="1.0" encoding="UTF-8"?>
<svg id="Layer_1" data-name="Layer 1" xmlns="http://www.w3.org/2000/svg" viewBox="0 0 7557.65 2835">
  <defs>
    <style>
      .cls-1 {
        fill: #323c3e;
      }

      .cls-2 {
        fill: #04bcca;
      }

      .cls-3 {
        fill: #f0efee;
      }
    </style>
  </defs>
  <rect class="cls-3" x="2447.42" width="5110.23" height="2835" rx="100.94" ry="100.94"/>
  <g>
    <path class="cls-3" d="M0,2834V100.3C0,44.91,44.91,0,100.3,0h2650.11c46.72,0,84.59,37.87,84.59,84.59v2665.83c0,46.72-37.87,84.59-84.59,84.59H0v-1ZM160.87,669.3v172.85s.93,128.46.93,128.46c.03,4.85-.22,9.72-1.05,14.5-.43,2.46-.47,5.44-.46,8.78l.6,283.67.24,1277.13c0,19.72,10.06,37.16,22.37,51.23,25.92,29.63,62.73,50.31,102.48,54.19,78.68,7.68,172.17-1.87,256.83-1.16,25,.21,48.68-10.63,65.16-29.44.27-.3.53-.61.8-.91,15.92-17.88,38.81-27.98,62.75-28.03l1493.79-2.77c21.03-.04,41.43,7.64,56.91,21.86,3.19,2.93,6.19,6.06,8.99,9.36,16.16,19.1,40.14,29.81,65.16,29.92,86.3.38,168.84,7.39,255.79,1.48,2.73-.19,5.45-.51,8.15-.95,30.19-4.94,58.21-14.71,79.57-38.18,19.15-21.04,36.56-51.67,36.56-82.64l.17-2214.44c0-5.47-.51-10.93-1.58-16.3-7.78-39.33-27.92-74.76-59.47-100.6-17.98-14.73-42-33.78-67.53-33.84l-538.84-1.17-905.14-.68-186.75.13-416.49-.46-200.43-.14c-12.57,0-25.79,4.8-37.25,10.05-31.97,14.65-59.66,37.77-77.74,68.12-7.42,12.45-13.43,25.69-18.76,39.46-3.73,9.65-5.6,19.92-5.61,30.26l-.13,350.27Z"/>
    <path class="cls-3" d="M1411.35,871.98l.1,35.8c.08,29.97,1.04,62.66-26.28,77.88-45.87,25.55-79.78,34.18-119.14,66.59-87.1,71.71-133.75,182.49-122.99,295.41,6.23,65.37,31.81,126.23,75.22,174.99,80.13,89.99,237.91,113.95,350.39,133.69l151.17,26.52c47.88,8.4,131.62,32.47,169.81,61.95,34.11,26.33,44.5,68.61,26.48,108.26-17.92,39.44-52.8,68.52-94.63,82.24-159.22,52.22-424.1,16.18-558.04-85.91-13-9.91-23.45-21.68-35.75-32.33-4.93-3.56-9.84-6.52-16.54-8.49l-148.13,151.79c73.33,74.96,161.52,125.72,259.17,153.87,112.89,32.54,224.55,35.6,341.27,34.31,17.03-.19,14.31,43.23-16.88,62.58-17.08,10.6-38.29,20.83-60.29,20.89l-592.18,1.74c-50.32,13.28-71.26,71.24-80.33,116.94h1212.87c-14.44-53.82-36.6-116.67-101.22-119.78-67.76-3.26-120.37,3.76-190.23,2.89-17.94-.22-39.43-8.55-44.54-27.42-6.88-25.42,10.98-50.11,34.35-59.49,17.76-7.13,34.57-9.28,53.45-12.96,63.89-12.47,122.76-42.9,170.98-86.13,85.98-77.07,124.48-190.38,107.83-304.13-18.69-127.69-108.13-199.04-223.51-240.83-48.65-17.62-96.88-31.33-148.21-39.69l-166.57-27.14c-58.8-9.58-154.3-20.71-201.51-52.17-52.98-35.31-62.15-105.44-20.93-153.38,29.12-33.87,69.38-51.64,114.75-54.02,94.59-4.95,188.07-3.8,282.71,2.11,85.88,8.49,178.64,40.68,235.25,109.97l138.15-152.4c3.04-3.36,6.74-13.97,2.69-17.15-24.92-19.49-48.39-38.46-75.4-54.81-93.99-56.89-199.44-86.49-309.18-91.19-50.36-2.16-97.88-.81-148.15.74l-140.45,4.34-7.58-106.13c9.01-.41,20.23-2.02,27.65-9.05,5.69-5.39,15.37-17.11,15.5-25.2l1.3-80.3c52.44-1.3,106.29,9.44,135.48-40.22l.67-99.88,862.35.06.1,1736.05c-10.22,19.02-31.27,45.08-55.94,45.08l-2113.3.05c-21.73,0-54.61-20.88-54.69-43.92l-3.17-990.01c-35.94-16.36-70.76-33.65-102.46-55.53-28.24-19.5-25.99-31.55-41.95-31.51l-.6-283.67c-.01-5.2.09-9.51,1.59-12.39l1.49,14.62c14.41,141.02,98.46,240.37,232.85,281.4,65.29,19.93,132.87,27.34,201.01,21.17,141.8-12.82,263.39-95.38,304.88-234.76,25.68-86.26,15.5-189.04,15.46-278.23l-.06-168.29h312.98s.21,95.44.21,95.44c5.72,12.88,17.65,23.85,28.06,33.55,13.48,4.05,26.91,10.39,40.85,10.52l67.33.63.22,84.45c.05,18.33,30.64,29.36,44.2,29.98Z"/>
    <path class="cls-1" d="M160.88,1277.55c15.96-.05,13.7,12.01,41.95,31.51,31.7,21.88,66.53,39.17,102.46,55.53l3.17,990.01c.07,23.04,32.96,43.92,54.69,43.92l2113.3-.05c24.67,0,45.72-26.06,55.94-45.08l-.1-1736.05-862.35-.06-.67,99.88c-29.19,49.66-83.04,38.91-135.48,40.22l-1.3,80.3c-.13,8.1-9.81,19.81-15.5,25.2-7.42,7.03-18.64,8.64-27.65,9.05-25.98,1.19-51.98,1.24-77.97.05-13.55-.62-44.15-11.65-44.2-29.98l-.22-84.45-67.33-.63c-13.94-.13-27.37-6.48-40.85-10.52-10.41-9.71-22.34-20.67-28.06-33.55l-.21-95.44h-312.98s.2-129.44.2-129.44l311.41-.12c-1.48-23.52,8.47-50.42,28.78-61.77l127.67-.96-.16-106.58-467.65-.23-.47-146.58,186.75-.13,905.14.68,538.84,1.17c25.53.06,49.55,19.11,67.53,33.84,33.98,27.83,54.73,66.78,61.05,109.76l-.17,2221.59c0,30.98-17.41,61.6-36.56,82.64-22.41,24.63-52.16,34.17-84.05,38.88-104.02,7.49-201.58-3.83-306.62-.66-11.23-29.1-33.78-51.08-63.49-61.74l-1543.53,2.87c-23.92,14.6-42.3,35.17-55.52,59.8-95.06-6.1-208.12,8.72-300.69-.32-39.75-3.88-76.56-24.55-102.48-54.19-12.31-14.08-22.37-31.51-22.37-51.23l-.24-1277.13ZM1671.62,487.91h860.76c-1.45-42.77,2.85-85.15-1.79-126.76-2.36-19.71-24.64-33.23-40.68-42.61h-974.92s-.36,106.7-.36,106.7l120.99.2c4.44,0,10.57,3.58,14.28,6.07,15.82,14.74,22.24,34.78,21.73,56.4Z"/>
    <path class="cls-2" d="M917.29,171.73l.47,146.58-.05,169.65-.2,129.44.06,168.29c.03,89.2,10.21,191.98-15.46,278.23-41.49,139.38-163.09,221.93-304.88,234.76-68.14,6.16-135.72-1.24-201.01-21.17-134.39-41.03-218.44-140.38-232.85-281.4l-1.49-14.62-1-139.35,144.42.15-.58,61.35c-.76,80.96,11.92,163.71,82.51,213.05,29.82,20.84,62.53,37.7,99.12,43.69,30.51,4.99,62.09,5.68,92.91-.16,64.22-12.16,120.99-52.06,156.36-106.57,15.11-23.28,26.32-49.82,26.33-78.33l.26-656.55-411.05-.13c-21.1,9.56-36.23,24.83-45.93,45.78l-.13,304.55-144.23.33.14-365.22c6.72-19.3,14.23-37.77,24.36-54.78,18.08-30.34,45.78-53.46,77.74-68.12,11.46-5.25,24.68-10.06,37.25-10.05l200.43.14,416.49.46Z"/>
    <path class="cls-3" d="M160.87,842.14v-172.85s144.22-.33,144.22-.33l.13-304.55c9.7-20.95,24.83-36.22,45.93-45.78l411.05.13-.26,656.55c-.01,28.52-11.22,55.05-26.33,78.33-35.37,54.51-92.15,94.41-156.36,106.57-30.82,5.83-62.4,5.14-92.91.16-36.59-5.98-69.3-22.84-99.12-43.69-70.59-49.34-83.27-132.09-82.51-213.05l.58-61.35-144.42-.15Z"/>
    <path class="cls-2" d="M1489.32,871.93l7.58,106.13,140.45-4.34c50.27-1.55,97.79-2.9,148.15-.74,109.74,4.7,215.19,34.3,309.18,91.19,27.01,16.35,50.47,35.32,75.4,54.81,4.06,3.17.36,13.79-2.69,17.15l-138.15,152.4c-56.61-69.29-149.38-101.48-235.25-109.97-94.64-5.91-188.12-7.06-282.71-2.11-45.37,2.38-85.63,20.15-114.75,54.02-41.22,47.94-32.06,118.08,20.93,153.38,47.21,31.46,142.7,42.58,201.51,52.17l166.57,27.14c51.33,8.36,99.56,22.07,148.21,39.69,115.37,41.79,204.82,113.13,223.51,240.83,16.64,113.75-21.86,227.06-107.83,304.13-48.22,43.23-107.09,73.66-170.98,86.13-18.88,3.69-35.69,5.84-53.45,12.96-23.37,9.38-41.23,34.07-34.35,59.49,5.11,18.87,26.6,27.2,44.54,27.42,69.86.87,122.47-6.15,190.23-2.89,64.62,3.11,86.78,65.96,101.22,119.78H913.78c9.07-45.7,30.01-103.66,80.33-116.94l592.18-1.74c21.99-.06,43.21-10.3,60.29-20.89,31.2-19.36,33.91-62.77,16.88-62.58-116.72,1.29-228.37-1.77-341.27-34.31-97.65-28.15-185.84-78.91-259.17-153.87l148.13-151.79c6.7,1.96,11.61,4.93,16.54,8.49,12.31,10.65,22.75,22.42,35.75,32.33,133.94,102.09,398.82,138.13,558.04,85.91,41.83-13.72,76.71-42.8,94.63-82.24,18.02-39.66,7.63-81.93-26.48-108.26-38.19-29.48-121.93-53.54-169.81-61.95l-151.17-26.52c-112.48-19.74-270.26-43.69-350.39-133.69-43.41-48.76-68.99-109.62-75.22-174.99-10.77-112.92,35.89-223.7,122.99-295.41,39.37-32.41,73.28-41.04,119.14-66.59,27.33-15.22,26.37-47.92,26.28-77.88l-.1-35.8c25.99,1.19,51.99,1.14,77.97-.05Z"/>
    <path class="cls-3" d="M1671.62,487.91c.52-21.62-5.91-41.65-21.73-56.4-3.71-2.49-9.84-6.06-14.28-6.07l-120.99-.2.36-106.72h974.92c16.04,9.4,38.32,22.91,40.68,42.63,4.64,41.61.34,83.99,1.79,126.75h-860.76Z"/>
    <path class="cls-3" d="M917.71,487.96l.05-169.65,467.65.23.16,106.58-127.67.96c-20.31,11.34-30.26,38.25-28.78,61.77l-311.41.12Z"/>
  </g>
  <g>
    <g>
      <path class="cls-1" d="M3544.46,1102.39c0,61.63-1.76,114.46-38.74,168.17-34.34,50.19-88.93,74.84-148.8,74.84-48.43,0-97.73-28.17-130.31-62.51l82.76-95.09c6.16,19.37,29.05,43.14,50.19,43.14,63.39,0,55.47-107.42,55.47-150.56v-416.46h129.43v438.47Z"/>
      <path class="cls-1" d="M3732,1131.44c0,54.59,21.13,116.22,85.4,116.22,40.5,0,66.04-24.65,82.76-58.99l113.58,18.49c-29.94,86.29-105.65,134.71-196.34,134.71-133.83,0-215.71-95.09-215.71-226.28s69.56-234.2,209.55-234.2,205.15,104.77,205.15,235.08v14.97h-284.39ZM3900.16,1054.84c-6.16-44.02-34.34-87.17-81.88-87.17s-76.6,42.26-82.76,87.17h164.65Z"/>
      <path class="cls-1" d="M4196.88,1327.79h-123.27v-746.63h123.27v746.63Z"/>
      <path class="cls-1" d="M4690.81,1301.37c0,140.87-47.54,257.1-209.55,257.1-105.66,0-212.19-64.27-218.36-179.61h130.31c6.16,45.78,38.74,75.72,85.4,75.72,87.17,0,88.93-76.6,88.93-141.75v-28.17h-1.76c-26.41,35.22-72.2,57.23-117.98,57.23-126.79,0-194.58-110.94-194.58-227.16s72.2-233.32,200.75-233.32c43.14,0,87.17,22.01,111.82,55.47h1.76v-41.38h123.26v405.89ZM4582.52,1112.07c0-58.11-38.74-121.5-102.13-121.5s-102.13,63.39-102.13,121.5,38.74,120.62,102.13,120.62,102.13-62.51,102.13-120.62Z"/>
      <path class="cls-1" d="M4878.35,1131.44c0,54.59,21.13,116.22,85.4,116.22,40.5,0,66.04-24.65,82.76-58.99l113.58,18.49c-29.94,86.29-105.66,134.71-196.34,134.71-133.83,0-215.71-95.09-215.71-226.28s69.56-234.2,209.55-234.2,205.15,104.77,205.15,235.08v14.97h-284.39ZM5046.52,1054.84c-6.16-44.02-34.34-87.17-81.88-87.17s-76.6,42.26-82.76,87.17h164.65Z"/>
      <path class="cls-1" d="M5343.23,940.38h1.76c24.65-37.86,61.63-58.99,107.42-58.99,17.61,0,35.22,4.4,51.07,10.57l-14.97,114.46c-14.97-10.57-32.58-15.85-51.07-15.85-85.4,0-94.21,75.72-94.21,142.64v194.58h-123.26v-432.31h123.26v44.9Z"/>
      <path class="cls-1" d="M5859.17,810.07c-24.65-33.46-56.35-54.59-99.49-54.59s-81,31.7-81,74.84c0,111.82,263.26,65.15,263.26,287.91,0,132.95-82.76,227.16-218.36,227.16-91.57,0-158.48-52.83-204.27-129.43l83.64-81.88c17.61,51.07,64.27,96.85,119.74,96.85s85.4-44.9,85.4-95.97c0-68.68-63.39-88.05-115.34-108.3-85.4-35.22-147.92-78.36-147.92-181.38,0-110.06,81.88-198.98,193.7-198.98,58.99,0,140.88,29.06,181.38,73.96l-60.75,89.81Z"/>
      <path class="cls-1" d="M6014.12,837.37c11.45-114.46,84.52-191.06,203.39-191.06s191.06,73.08,191.06,187.54c0,51.07-18.49,108.3-63.39,138.23,60.75,26.41,85.41,101.25,85.41,162.01,0,130.31-94.21,211.31-221,211.31s-213.07-90.69-220.12-209.55h130.31c2.64,52.83,37.86,96.85,95.09,96.85s88.93-54.59,88.93-106.54-35.22-110.06-93.33-105.66l-23.77,1.76v-92.45h14.09c55.47,0,84.52-36.1,84.52-91.57,0-44.02-27.29-84.52-75.72-84.52-45.79,0-70.44,43.14-72.2,83.64h-123.26Z"/>
      <path class="cls-1" d="M6518.61,663.92h184.9c191.94,0,320.49,143.52,320.49,332.81s-132.07,331.05-321.37,331.05h-184.02v-663.87ZM6648.04,1215.09h21.13c159.36,0,221-88.05,221-219.24,0-144.4-73.96-219.23-221-219.23h-21.13v438.47Z"/>
    </g>
    <g>
      <path class="cls-2" d="M3480.91,2107.05c0,8.38,5.36,19.77,18.77,19.77,20.44,0,21.78-20.78,21.78-35.86,0-28.15-9.72-36.19-37.87-35.19v-43.57c27.15,0,38.21-5.36,38.21-33.18,0-11.39-2.35-25.8-17.09-25.8s-16.76,15.08-16.76,26.14v5.03h-43.23c-2.01-40.55,12.4-74.73,58.98-74.73,40.89,0,64.01,26.14,64.01,66.02,0,24.13-6.7,49.93-31.17,59.65v.67c28.15,7.04,38.88,32.84,38.88,59.99,0,46.25-28.49,74.4-74.73,74.4-42.56,0-68.37-28.15-66.36-70.38h46.92l-.33,7.04Z"/>
      <path class="cls-2" d="M3604.57,2166.37v-252.69h37.87c8.71,0,113.27-12.73,113.27,128.35,0,72.05-27.82,124.33-106.57,124.33h-44.57ZM3705.78,2041.7c0-32.17-10.05-83.11-51.27-83.11v162.87c40.21,2.01,51.27-48.26,51.27-79.76Z"/>
      <path class="cls-2" d="M3864.29,2166.37v-252.69h51.95c10.72,0,85.79-6.7,85.79,74.73,0,47.25-30.5,74.4-76.75,74.4l-11.06-.67v104.22h-49.93ZM3914.23,2021.6c24.13,1,37.87-8.04,37.87-33.85,0-18.1-7.04-32.84-28.49-32.84h-9.38v66.69Z"/>
      <path class="cls-2" d="M4027.5,2166.37v-252.69h50.27c31.84,0,88.81,3.35,88.81,72.39,0,27.82-11.06,51.61-35.86,65.35l43.9,114.95h-52.62l-43.9-116.62h-.67v116.62h-49.93ZM4077.43,2022.27l8.71.33c22.79,0,31.84-15.42,31.84-36.19,0-18.1-8.71-32.84-33.85-31.5h-6.7v67.36Z"/>
      <path class="cls-2" d="M4255.05,1913.68v252.69h-49.93v-252.69h49.93Z"/>
      <path class="cls-2" d="M4338.49,1913.68l62.33,152.48.67-.67c-3.02-12.06-4.02-25.13-4.02-38.2v-113.61h49.93v252.69h-47.25l-61.66-152.48-.67.67,2.35,25.47.33,10.39v115.95h-49.93v-252.69h47.92Z"/>
      <path class="cls-2" d="M4598.55,1913.68v46.92h-39.55v205.77h-49.93v-205.77h-39.21v-46.92h128.69Z"/>
      <path class="cls-2" d="M4725.22,1970.66c-10.05-8.71-22.45-16.09-36.19-16.09-15.42,0-25.13,9.38-25.13,24.8,0,41.56,76.07,43.9,76.07,112.27,0,44.91-25.8,78.75-72.72,78.75-14.08,0-31.5-4.36-42.9-12.73v-47.59c11.73,8.04,23.12,13.41,37.87,13.41,16.09,0,28.82-10.72,28.82-27.48,0-19.44-15.42-26.81-29.49-36.86-28.82-19.44-46.58-38.21-46.58-75.07,0-39.88,23.12-74.4,66.02-74.4,16.09,0,30.5,4.36,44.24,12.4v48.59Z"/>
      <path class="cls-2" d="M4869.32,1913.68v46.92h-50.6v54.96h44.57v46.92h-44.57v56.97h51.27v46.92h-101.21v-252.69h100.54Z"/>
      <path class="cls-2" d="M4900.15,2166.37v-252.69h50.27c31.84,0,88.81,3.35,88.81,72.39,0,27.82-11.06,51.61-35.86,65.35l43.9,114.95h-52.62l-43.9-116.62h-.67v116.62h-49.93ZM4950.09,2022.27l8.71.33c22.79,0,31.84-15.42,31.84-36.19,0-18.1-8.71-32.84-33.85-31.5h-6.7v67.36Z"/>
      <path class="cls-2" d="M5103.92,1913.68l30.16,121.32c4.36,14.41,6.03,28.82,9.05,43.23h.67c2.68-14.75,3.69-29.16,7.71-43.9l30.5-120.65h52.28l-70.04,252.69h-40.89l-73.06-252.69h53.62Z"/>
      <path class="cls-2" d="M5304.65,1913.68v252.69h-49.93v-252.69h49.93Z"/>
      <path class="cls-2" d="M5466.18,1961.27c-6.37-1.68-12.4-2.68-18.77-2.68-43.9,0-63,39.88-63,78.76s19.1,83.78,62.67,83.78c6.37,0,12.73-1.68,19.1-3.69v47.25c-7.37,3.02-15.08,4.36-23.12,4.36-72.05,0-111.93-65.01-111.93-131.37,0-62.67,41.56-127.01,109.59-127.01,8.71,0,17.09,1.68,25.47,4.69v45.91Z"/>
      <path class="cls-2" d="M5592.19,1913.68v46.92h-50.6v54.96h44.57v46.92h-44.57v56.97h51.27v46.92h-101.21v-252.69h100.54Z"/>
      <path class="cls-2" d="M5873.69,2040.03c0,94.84-44.24,130.37-88.81,130.37s-88.81-35.52-88.81-130.37,44.24-130.37,88.81-130.37,88.81,35.52,88.81,130.37ZM5784.88,2124.15c33.18,0,35.52-64.01,35.52-84.12,0-22.45-2.35-84.12-35.52-84.12s-35.52,61.66-35.52,84.12c0,20.11,2.35,84.12,35.52,84.12Z"/>
      <path class="cls-2" d="M5900.16,2166.37v-252.69h51.95c10.72,0,85.79-6.7,85.79,74.73,0,47.25-30.5,74.4-76.75,74.4l-11.06-.67v104.22h-49.93ZM5950.1,2021.6c24.13,1,37.87-8.04,37.87-33.85,0-18.1-7.04-32.84-28.49-32.84h-9.38v66.69Z"/>
      <path class="cls-2" d="M6223.22,1913.68l24.46,149.13h.67l20.11-149.13h67.03l26.47,252.69h-51.27l-12.06-181.97h-.67l-8.04,62.33-21.45,119.64h-38.54l-24.46-120.98-8.38-56.3v-4.69h-.67l-7.37,181.97h-53.62l22.12-252.69h65.69Z"/>
      <path class="cls-2" d="M6483.61,1913.68l60.66,252.69h-53.29l-9.38-42.56h-50.6l-9.05,42.56h-49.6l58.65-252.69h52.62ZM6461.49,2016.9l-5.7-38.2h-.67l-5.36,38.2-10.72,67.36h35.19l-12.74-67.36Z"/>
      <path class="cls-2" d="M6660.56,1913.68l60.66,252.69h-53.29l-9.38-42.56h-50.6l-9.05,42.56h-49.6l58.65-252.69h52.62ZM6638.44,2016.9l-5.7-38.2h-.67l-5.36,38.2-10.72,67.36h35.19l-12.74-67.36Z"/>
      <path class="cls-2" d="M6838.85,1913.68v46.92h-39.55v205.77h-49.93v-205.77h-39.21v-46.92h128.69Z"/>
    </g>
  </g>
</svg>